<?xml version="1.0" encoding="UTF-8" ?>
<!DOCTYPE svg PUBLIC "-//W3C//DTD SVG 1.1//EN" "http://www.w3.org/Graphics/SVG/1.1/DTD/svg11.dtd">
<svg width="1024pt" height="1024pt" viewBox="0 0 1024 900" version="1.1" xmlns="http://www.w3.org/2000/svg">
<g>
<path fill="#fff" opacity="1.00" d=" M 345.28 248.29 C 381.62 248.18 417.97 248.28 454.31 248.24 C 454.42 272.08 454.41 295.92 454.32 319.75 C 424.86 319.76 395.40 319.75 365.95 319.75 C 350.41 319.82 334.66 319.15 319.40 322.59 C 271.80 333.02 231.52 372.70 221.71 420.62 C 215.65 451.26 219.51 484.41 235.42 511.59 C 248.32 533.40 267.33 551.68 289.86 563.33 C 308.68 573.05 330.02 576.71 351.04 576.76 C 392.65 576.74 434.26 576.75 475.87 576.75 C 475.88 551.17 475.87 525.58 475.88 500.00 C 433.05 499.99 390.22 500.02 347.39 499.99 C 347.41 476.24 347.38 452.49 347.41 428.75 C 414.02 428.75 480.64 428.74 547.25 428.75 C 547.25 501.83 547.25 574.92 547.25 648.00 C 492.51 648.00 437.77 648.00 383.03 648.00 C 358.28 647.73 333.28 649.28 308.84 644.52 C 289.05 641.00 269.84 634.25 252.20 624.61 C 219.03 606.29 190.87 578.76 172.22 545.74 C 149.77 506.49 143.38 459.39 150.05 415.02 C 154.96 382.13 168.86 350.69 189.80 324.87 C 211.35 298.21 239.00 276.07 270.79 262.89 C 294.30 253.04 319.85 248.59 345.28 248.29 Z" />
<path fill="#fff" opacity="1.00" d=" M 476.54 248.25 C 533.69 248.38 590.83 248.54 647.97 248.68 C 666.38 248.82 684.86 248.19 703.18 250.45 C 724.10 253.25 744.75 258.94 763.65 268.43 C 782.63 277.67 799.79 290.38 814.87 305.10 C 839.01 328.29 857.92 357.27 867.39 389.51 C 875.94 418.14 877.57 448.64 873.43 478.17 C 867.68 522.05 845.20 562.94 813.00 593.03 C 785.84 619.76 750.74 638.68 713.01 644.87 C 694.26 648.67 675.03 647.91 656.01 648.00 C 629.67 648.00 603.34 648.00 577.00 648.00 C 577.00 624.41 576.99 600.83 577.01 577.24 C 606.99 577.25 636.98 577.24 666.96 577.25 C 683.47 577.38 700.24 576.25 716.00 571.01 C 741.25 562.84 763.23 545.96 779.20 524.93 C 797.32 501.57 805.69 471.42 804.01 442.04 C 803.04 413.30 791.53 385.09 772.06 363.93 C 754.92 344.60 732.23 329.61 706.86 323.87 C 690.93 319.60 674.29 320.31 657.96 320.25 C 621.09 320.25 584.22 320.25 547.35 320.25 C 547.35 335.50 547.35 350.75 547.35 366.00 C 523.75 366.00 500.15 366.00 476.55 366.00 C 476.54 326.75 476.55 287.50 476.54 248.25 Z" />
</g>
</svg>
